<svg xmlns="http://www.w3.org/2000/svg" xmlns:xlink="http://www.w3.org/1999/xlink" viewBox="0 0 95.167 94.167" fill="#fff" fill-rule="evenodd" stroke="#000" stroke-linecap="round" stroke-linejoin="round"><use xlink:href="#A" x="2.083" y="2.083"/><symbol id="A" overflow="visible"><g fill="#f4aa41" fill-rule="nonzero"><path d="M40.069 35.758c-2.921-8.933-.469-19.583 7.142-27.215C57.665-1.91 73.894-2.631 83.461 6.933s8.844 25.792-1.61 36.25c-8.452 8.452-21.74 11.485-29.725 5.396" stroke="none"/><path d="M40.31 35.229l-5.071 5.104L.71 74.348v14.887h15.412V79.7h10.442V67.658h10.388l4.896-4.944v-8.962h4.104l6.438-6.437" stroke="#f4aa41" stroke-width="4.167" stroke-miterlimit="10"/></g><g stroke="none" fill="#e27022"><path d="M3.504 80.25l.002-3.973 33.15-32.425 1.985 2.029z" fill-rule="nonzero"/><use xlink:href="#C" fill-rule="nonzero"/></g><g stroke-width="4.167" fill="none"><path d="M34.233 41.312L0 74.695v15.083h15.76v-9.66h10.677V67.916h10.621l5.008-5.008v-9.079h4.198" stroke-miterlimit="10"/><use xlink:href="#C"/><path d="M41.506 34.066c-2.979-8.829-.723-19.208 6.625-26.448C58.225-2.319 74.1-2.569 83.593 7.071s9.004 25.508-1.088 35.45c-8.16 8.038-20.1 9.738-29.392 5" stroke-miterlimit="10"/></g></symbol><defs ><path id="C" d="M63.052 19.108c0-4.561 3.672-8.233 8.233-8.233s8.233 3.672 8.233 8.233-3.672 8.233-8.233 8.233-8.233-3.672-8.233-8.233z"/></defs></svg>